<svg width="107" height="73" viewBox="0 0 107 73" fill="none" xmlns="http://www.w3.org/2000/svg">
<path d="M48.166 41.842H31.446C31.598 43.9193 32.396 45.604 33.84 46.896C35.284 48.1627 37.108 48.796 39.312 48.796C40.5533 48.796 41.6933 48.5807 42.732 48.15C43.7707 47.694 44.67 47.0353 45.43 46.174L46.95 47.922C46.0633 48.986 44.9487 49.7967 43.606 50.354C42.2887 50.9113 40.832 51.19 39.236 51.19C37.184 51.19 35.36 50.7593 33.764 49.898C32.1933 49.0113 30.9647 47.7953 30.078 46.25C29.1913 44.7047 28.748 42.9567 28.748 41.006C28.748 39.0553 29.166 37.3073 30.002 35.762C30.8633 34.2167 32.0287 33.0133 33.498 32.152C34.9927 31.2907 36.6647 30.86 38.514 30.86C40.3633 30.86 42.0227 31.2907 43.492 32.152C44.9613 33.0133 46.114 34.2167 46.95 35.762C47.786 37.282 48.204 39.03 48.204 41.006L48.166 41.842ZM38.514 33.178C36.5887 33.178 34.9673 33.7987 33.65 35.04C32.358 36.256 31.6233 37.852 31.446 39.828H45.62C45.4427 37.852 44.6953 36.256 43.378 35.04C42.086 33.7987 40.4647 33.178 38.514 33.178ZM80.4369 31.012L71.5449 51H68.7709L59.9169 31.012H62.7289L70.2149 48.036L77.7769 31.012H80.4369Z" fill="black"/>
<path d="M4.98 13.48H21.24V20.8H14.34V62.32H21.24V69.64H4.98V13.48ZM85.8023 69.64V62.32H92.6423V20.8H85.8023V13.48H102.002V69.64H85.8023Z" fill="black"/>
</svg>
