<svg width="107" height="73" viewBox="0 0 107 73" fill="none" xmlns="http://www.w3.org/2000/svg">
<path d="M52.749 45.263H27.669C27.897 48.379 29.094 50.906 31.26 52.844C33.426 54.744 36.162 55.694 39.468 55.694C41.33 55.694 43.04 55.371 44.598 54.725C46.156 54.041 47.505 53.053 48.645 51.761L50.925 54.383C49.595 55.979 47.923 57.195 45.909 58.031C43.933 58.867 41.748 59.285 39.354 59.285C36.276 59.285 33.54 58.639 31.146 57.347C28.79 56.017 26.947 54.193 25.617 51.875C24.287 49.557 23.622 46.935 23.622 44.009C23.622 41.083 24.249 38.461 25.503 36.143C26.795 33.825 28.543 32.02 30.747 30.728C32.989 29.436 35.497 28.79 38.271 28.79C41.045 28.79 43.534 29.436 45.738 30.728C47.942 32.02 49.671 33.825 50.925 36.143C52.179 38.423 52.806 41.045 52.806 44.009L52.749 45.263ZM38.271 32.267C35.383 32.267 32.951 33.198 30.975 35.06C29.037 36.884 27.935 39.278 27.669 42.242H48.93C48.664 39.278 47.543 36.884 45.567 35.06C43.629 33.198 41.197 32.267 38.271 32.267ZM85.6808 29.018L72.3428 59H68.1818L54.9008 29.018H59.1188L70.3478 54.554L81.6908 29.018H85.6808Z" fill="black"/>
<path d="M4.98 13.48H21.24V20.8H14.34V62.32H21.24V69.64H4.98V13.48ZM85.8023 69.64V62.32H92.6423V20.8H85.8023V13.48H102.002V69.64H85.8023Z" fill="black"/>
</svg>
